<?xml version="1.0" encoding="UTF-8"?><svg xmlns="http://www.w3.org/2000/svg" xmlns:xlink="http://www.w3.org/1999/xlink" fill-opacity="1" color-rendering="auto" color-interpolation="auto" text-rendering="auto" stroke="black" stroke-linecap="square" width="715" stroke-miterlimit="10" shape-rendering="auto" stroke-opacity="1" fill="black" stroke-dasharray="none" font-weight="normal" stroke-width="1" height="771" font-family="'Dialog'" font-style="normal" stroke-linejoin="miter" font-size="12px" stroke-dashoffset="0" image-rendering="auto">
  <!--Generated by ySVG 2.6-->
  <defs id="genericDefs"/>
  <g>
    <defs id="defs1">
      <linearGradient x1="448" gradientUnits="userSpaceOnUse" x2="528" y1="50.1109" y2="90.1109" id="linearGradient1" spreadMethod="reflect">
        <stop stop-opacity="1" stop-color="rgb(232,238,247)" offset="0%"/>
        <stop stop-opacity="1" stop-color="rgb(183,201,227)" offset="100%"/>
      </linearGradient>
      <linearGradient x1="448" gradientUnits="userSpaceOnUse" x2="528" y1="160" y2="200" id="linearGradient2" spreadMethod="reflect">
        <stop stop-opacity="1" stop-color="rgb(232,238,247)" offset="0%"/>
        <stop stop-opacity="1" stop-color="rgb(183,201,227)" offset="100%"/>
      </linearGradient>
      <linearGradient x1="448" gradientUnits="userSpaceOnUse" x2="528" y1="270" y2="310" id="linearGradient3" spreadMethod="reflect">
        <stop stop-opacity="1" stop-color="rgb(232,238,247)" offset="0%"/>
        <stop stop-opacity="1" stop-color="rgb(183,201,227)" offset="100%"/>
      </linearGradient>
      <linearGradient x1="448" gradientUnits="userSpaceOnUse" x2="528" y1="381.122" y2="421.122" id="linearGradient4" spreadMethod="reflect">
        <stop stop-opacity="1" stop-color="rgb(232,238,247)" offset="0%"/>
        <stop stop-opacity="1" stop-color="rgb(183,201,227)" offset="100%"/>
      </linearGradient>
      <linearGradient x1="448" gradientUnits="userSpaceOnUse" x2="528" y1="495" y2="535" id="linearGradient5" spreadMethod="reflect">
        <stop stop-opacity="1" stop-color="rgb(232,238,247)" offset="0%"/>
        <stop stop-opacity="1" stop-color="rgb(183,201,227)" offset="100%"/>
      </linearGradient>
      <linearGradient x1="729.5298" gradientUnits="userSpaceOnUse" x2="809.5298" y1="602.4723" y2="642.4723" id="linearGradient6" spreadMethod="reflect">
        <stop stop-opacity="1" stop-color="rgb(232,238,247)" offset="0%"/>
        <stop stop-opacity="1" stop-color="rgb(183,201,227)" offset="100%"/>
      </linearGradient>
      <linearGradient x1="410" gradientUnits="userSpaceOnUse" x2="564" y1="610" y2="650" id="linearGradient7" spreadMethod="reflect">
        <stop stop-opacity="1" stop-color="rgb(232,238,247)" offset="0%"/>
        <stop stop-opacity="1" stop-color="rgb(183,201,227)" offset="100%"/>
      </linearGradient>
      <linearGradient x1="410" gradientUnits="userSpaceOnUse" x2="564" y1="750.0555" y2="790.0555" id="linearGradient8" spreadMethod="reflect">
        <stop stop-opacity="1" stop-color="rgb(232,238,247)" offset="0%"/>
        <stop stop-opacity="1" stop-color="rgb(183,201,227)" offset="100%"/>
      </linearGradient>
      <linearGradient x1="140" gradientUnits="userSpaceOnUse" x2="220" y1="610" y2="650" id="linearGradient9" spreadMethod="reflect">
        <stop stop-opacity="1" stop-color="rgb(232,238,247)" offset="0%"/>
        <stop stop-opacity="1" stop-color="rgb(183,201,227)" offset="100%"/>
      </linearGradient>
      <linearGradient x1="244" gradientUnits="userSpaceOnUse" x2="324" y1="610" y2="650" id="linearGradient10" spreadMethod="reflect">
        <stop stop-opacity="1" stop-color="rgb(232,238,247)" offset="0%"/>
        <stop stop-opacity="1" stop-color="rgb(183,201,227)" offset="100%"/>
      </linearGradient>
      <linearGradient x1="244" gradientUnits="userSpaceOnUse" x2="324" y1="668" y2="708" id="linearGradient11" spreadMethod="reflect">
        <stop stop-opacity="1" stop-color="rgb(232,238,247)" offset="0%"/>
        <stop stop-opacity="1" stop-color="rgb(183,201,227)" offset="100%"/>
      </linearGradient>
      <linearGradient x1="244" gradientUnits="userSpaceOnUse" x2="324" y1="730" y2="770" id="linearGradient12" spreadMethod="reflect">
        <stop stop-opacity="1" stop-color="rgb(232,238,247)" offset="0%"/>
        <stop stop-opacity="1" stop-color="rgb(183,201,227)" offset="100%"/>
      </linearGradient>
      <linearGradient x1="448" gradientUnits="userSpaceOnUse" x2="528" y1="110" y2="150" id="linearGradient13" spreadMethod="reflect">
        <stop stop-opacity="1" stop-color="rgb(232,238,247)" offset="0%"/>
        <stop stop-opacity="1" stop-color="rgb(183,201,227)" offset="100%"/>
      </linearGradient>
      <linearGradient x1="448" gradientUnits="userSpaceOnUse" x2="528" y1="560" y2="600" id="linearGradient14" spreadMethod="reflect">
        <stop stop-opacity="1" stop-color="rgb(232,238,247)" offset="0%"/>
        <stop stop-opacity="1" stop-color="rgb(183,201,227)" offset="100%"/>
      </linearGradient>
      <linearGradient x1="448" gradientUnits="userSpaceOnUse" x2="528" y1="445" y2="485" id="linearGradient15" spreadMethod="reflect">
        <stop stop-opacity="1" stop-color="rgb(232,238,247)" offset="0%"/>
        <stop stop-opacity="1" stop-color="rgb(183,201,227)" offset="100%"/>
      </linearGradient>
      <linearGradient x1="448" gradientUnits="userSpaceOnUse" x2="528" y1="331.122" y2="371.122" id="linearGradient16" spreadMethod="reflect">
        <stop stop-opacity="1" stop-color="rgb(232,238,247)" offset="0%"/>
        <stop stop-opacity="1" stop-color="rgb(183,201,227)" offset="100%"/>
      </linearGradient>
      <linearGradient x1="448" gradientUnits="userSpaceOnUse" x2="528" y1="220" y2="260" id="linearGradient17" spreadMethod="reflect">
        <stop stop-opacity="1" stop-color="rgb(232,238,247)" offset="0%"/>
        <stop stop-opacity="1" stop-color="rgb(183,201,227)" offset="100%"/>
      </linearGradient>
      <linearGradient x1="299.5" gradientUnits="userSpaceOnUse" x2="420.5" y1="534.5" y2="605.5" id="linearGradient18" spreadMethod="reflect">
        <stop stop-opacity="1" stop-color="rgb(232,238,247)" offset="0%"/>
        <stop stop-opacity="1" stop-color="rgb(183,201,227)" offset="100%"/>
      </linearGradient>
      <linearGradient x1="500" gradientUnits="userSpaceOnUse" x2="605" y1="672.5" y2="727.5555" id="linearGradient19" spreadMethod="reflect">
        <stop stop-opacity="1" stop-color="rgb(232,238,247)" offset="0%"/>
        <stop stop-opacity="1" stop-color="rgb(183,201,227)" offset="100%"/>
      </linearGradient>
      <linearGradient x1="380" gradientUnits="userSpaceOnUse" x2="485" y1="672.5" y2="727.5555" id="linearGradient20" spreadMethod="reflect">
        <stop stop-opacity="1" stop-color="rgb(232,238,247)" offset="0%"/>
        <stop stop-opacity="1" stop-color="rgb(183,201,227)" offset="100%"/>
      </linearGradient>
      <linearGradient x1="711.6185" gradientUnits="userSpaceOnUse" x2="824.5298" y1="668" y2="739" id="linearGradient21" spreadMethod="reflect">
        <stop stop-opacity="1" stop-color="rgb(232,238,247)" offset="0%"/>
        <stop stop-opacity="1" stop-color="rgb(183,201,227)" offset="100%"/>
      </linearGradient>
      <linearGradient x1="729.5298" gradientUnits="userSpaceOnUse" x2="809.5298" y1="495" y2="535" id="linearGradient22" spreadMethod="reflect">
        <stop stop-opacity="1" stop-color="rgb(232,238,247)" offset="0%"/>
        <stop stop-opacity="1" stop-color="rgb(183,201,227)" offset="100%"/>
      </linearGradient>
      <linearGradient x1="613.5298" gradientUnits="userSpaceOnUse" x2="718.5298" y1="594.9445" y2="650" id="linearGradient23" spreadMethod="reflect">
        <stop stop-opacity="1" stop-color="rgb(232,238,247)" offset="0%"/>
        <stop stop-opacity="1" stop-color="rgb(183,201,227)" offset="100%"/>
      </linearGradient>
      <linearGradient x1="637.5" gradientUnits="userSpaceOnUse" x2="742.5" y1="91.4467" y2="168.5533" id="linearGradient24" spreadMethod="reflect">
        <stop stop-opacity="1" stop-color="rgb(232,238,247)" offset="0%"/>
        <stop stop-opacity="1" stop-color="rgb(183,201,227)" offset="100%"/>
      </linearGradient>
      <linearGradient x1="650" gradientUnits="userSpaceOnUse" x2="730" y1="220" y2="260" id="linearGradient25" spreadMethod="reflect">
        <stop stop-opacity="1" stop-color="rgb(232,238,247)" offset="0%"/>
        <stop stop-opacity="1" stop-color="rgb(183,201,227)" offset="100%"/>
      </linearGradient>
      <linearGradient x1="613" gradientUnits="userSpaceOnUse" x2="767" y1="320" y2="360" id="linearGradient26" spreadMethod="reflect">
        <stop stop-opacity="1" stop-color="rgb(232,238,247)" offset="0%"/>
        <stop stop-opacity="1" stop-color="rgb(183,201,227)" offset="100%"/>
      </linearGradient>
      <clipPath clipPathUnits="userSpaceOnUse" id="clipPath1">
        <path d="M0 0 L715 0 L715 771 L0 771 L0 0 Z"/>
      </clipPath>
      <clipPath clipPathUnits="userSpaceOnUse" id="clipPath2">
        <path d="M125 35 L840 35 L840 806 L125 806 L125 35 Z"/>
      </clipPath>
    </defs>
    <g fill="white" text-rendering="geometricPrecision" shape-rendering="geometricPrecision" transform="translate(-125,-35)" stroke="white">
      <rect x="125" width="715" height="771" y="35" clip-path="url(#clipPath2)" stroke="none"/>
    </g>
    <g fill="url(#linearGradient1)" text-rendering="geometricPrecision" shape-rendering="geometricPrecision" transform="matrix(1,0,0,1,-125,-35)" stroke="url(#linearGradient1)">
      <path d="M448 50.1109 L528 50.1109 L528 90.1109 L448 90.1109 Z" stroke="none" clip-path="url(#clipPath2)"/>
    </g>
    <g text-rendering="geometricPrecision" stroke-miterlimit="1.45" shape-rendering="geometricPrecision" transform="matrix(1,0,0,1,-125,-35)" stroke-linecap="butt">
      <path fill="none" d="M448 50.1109 L528 50.1109 L528 90.1109 L448 90.1109 Z" clip-path="url(#clipPath2)"/>
      <text x="467.9316" xml:space="preserve" y="67.5797" clip-path="url(#clipPath2)" font-family="sans-serif" stroke="none">State 5</text>
      <text x="462.0693" xml:space="preserve" y="81.7125" clip-path="url(#clipPath2)" font-family="sans-serif" stroke="none">MAX pull</text>
    </g>
    <g fill="url(#linearGradient2)" text-rendering="geometricPrecision" shape-rendering="geometricPrecision" transform="matrix(1,0,0,1,-125,-35)" stroke="url(#linearGradient2)">
      <path d="M448 160 L528 160 L528 200 L448 200 Z" stroke="none" clip-path="url(#clipPath2)"/>
    </g>
    <g text-rendering="geometricPrecision" stroke-miterlimit="1.45" shape-rendering="geometricPrecision" transform="matrix(1,0,0,1,-125,-35)" stroke-linecap="butt">
      <path fill="none" d="M448 160 L528 160 L528 200 L448 200 Z" clip-path="url(#clipPath2)"/>
      <text x="467.9316" xml:space="preserve" y="177.4688" clip-path="url(#clipPath2)" font-family="sans-serif" stroke="none">State 4</text>
      <text x="461.3604" xml:space="preserve" y="191.6016" clip-path="url(#clipPath2)" font-family="sans-serif" stroke="none">FULL pull</text>
    </g>
    <g fill="url(#linearGradient3)" text-rendering="geometricPrecision" shape-rendering="geometricPrecision" transform="matrix(1,0,0,1,-125,-35)" stroke="url(#linearGradient3)">
      <path d="M448 270 L528 270 L528 310 L448 310 Z" stroke="none" clip-path="url(#clipPath2)"/>
    </g>
    <g text-rendering="geometricPrecision" stroke-miterlimit="1.45" shape-rendering="geometricPrecision" transform="matrix(1,0,0,1,-125,-35)" stroke-linecap="butt">
      <path fill="none" d="M448 270 L528 270 L528 310 L448 310 Z" clip-path="url(#clipPath2)"/>
      <text x="467.9316" xml:space="preserve" y="287.4688" clip-path="url(#clipPath2)" font-family="sans-serif" stroke="none">State 3</text>
      <text x="460.2441" xml:space="preserve" y="301.6016" clip-path="url(#clipPath2)" font-family="sans-serif" stroke="none">TOFF pull</text>
    </g>
    <g fill="url(#linearGradient4)" text-rendering="geometricPrecision" shape-rendering="geometricPrecision" transform="matrix(1,0,0,1,-125,-35)" stroke="url(#linearGradient4)">
      <path d="M448 381.122 L528 381.122 L528 421.122 L448 421.122 Z" stroke="none" clip-path="url(#clipPath2)"/>
    </g>
    <g text-rendering="geometricPrecision" stroke-miterlimit="1.45" shape-rendering="geometricPrecision" transform="matrix(1,0,0,1,-125,-35)" stroke-linecap="butt">
      <path fill="none" d="M448 381.122 L528 381.122 L528 421.122 L448 421.122 Z" clip-path="url(#clipPath2)"/>
      <text x="467.9316" xml:space="preserve" y="398.5908" clip-path="url(#clipPath2)" font-family="sans-serif" stroke="none">State 2</text>
      <text x="464.7705" xml:space="preserve" y="412.7236" clip-path="url(#clipPath2)" font-family="sans-serif" stroke="none">PRE pull</text>
    </g>
    <g fill="url(#linearGradient5)" text-rendering="geometricPrecision" shape-rendering="geometricPrecision" transform="matrix(1,0,0,1,-125,-35)" stroke="url(#linearGradient5)">
      <path d="M448 495 L528 495 L528 535 L448 535 Z" stroke="none" clip-path="url(#clipPath2)"/>
    </g>
    <g text-rendering="geometricPrecision" stroke-miterlimit="1.45" shape-rendering="geometricPrecision" transform="matrix(1,0,0,1,-125,-35)" stroke-linecap="butt">
      <path fill="none" d="M448 495 L528 495 L528 535 L448 535 Z" clip-path="url(#clipPath2)"/>
      <text x="467.9316" xml:space="preserve" y="512.4688" clip-path="url(#clipPath2)" font-family="sans-serif" stroke="none">State 1</text>
      <text x="448.8799" xml:space="preserve" y="526.6016" clip-path="url(#clipPath2)" font-family="sans-serif" stroke="none">DEFAULT pull</text>
    </g>
    <g fill="url(#linearGradient6)" text-rendering="geometricPrecision" shape-rendering="geometricPrecision" transform="matrix(1,0,0,1,-125,-35)" stroke="url(#linearGradient6)">
      <path d="M729.5298 602.4723 L809.5298 602.4723 L809.5298 642.4723 L729.5298 642.4723 Z" stroke="none" clip-path="url(#clipPath2)"/>
    </g>
    <g text-rendering="geometricPrecision" stroke-miterlimit="1.45" shape-rendering="geometricPrecision" transform="matrix(1,0,0,1,-125,-35)" stroke-linecap="butt">
      <path fill="none" d="M729.5298 602.4723 L809.5298 602.4723 L809.5298 642.4723 L729.5298 642.4723 Z" clip-path="url(#clipPath2)"/>
      <text x="749.4614" xml:space="preserve" y="627.0074" clip-path="url(#clipPath2)" font-family="sans-serif" stroke="none">State 0</text>
    </g>
    <g fill="url(#linearGradient7)" text-rendering="geometricPrecision" shape-rendering="geometricPrecision" transform="matrix(1,0,0,1,-125,-35)" stroke="url(#linearGradient7)">
      <path d="M410 610 L564 610 L564 650 L410 650 Z" stroke="none" clip-path="url(#clipPath2)"/>
    </g>
    <g text-rendering="geometricPrecision" stroke-miterlimit="1.45" shape-rendering="geometricPrecision" transform="matrix(1,0,0,1,-125,-35)" stroke-linecap="butt">
      <path fill="none" d="M410 610 L564 610 L564 650 L410 650 Z" clip-path="url(#clipPath2)"/>
      <text x="463.46" xml:space="preserve" y="627.4688" clip-path="url(#clipPath2)" font-family="sans-serif" stroke="none">State -1</text>
      <text x="457.665" xml:space="preserve" y="641.6016" clip-path="url(#clipPath2)" font-family="sans-serif" stroke="none">Soft Brake</text>
    </g>
    <g fill="url(#linearGradient8)" text-rendering="geometricPrecision" shape-rendering="geometricPrecision" transform="matrix(1,0,0,1,-125,-35)" stroke="url(#linearGradient8)">
      <path d="M410 750.0555 L564 750.0555 L564 790.0555 L410 790.0555 Z" stroke="none" clip-path="url(#clipPath2)"/>
    </g>
    <g text-rendering="geometricPrecision" stroke-miterlimit="1.45" shape-rendering="geometricPrecision" transform="matrix(1,0,0,1,-125,-35)" stroke-linecap="butt">
      <path fill="none" d="M410 750.0555 L564 750.0555 L564 790.0555 L410 790.0555 Z" clip-path="url(#clipPath2)"/>
      <text x="463.46" xml:space="preserve" y="767.5242" clip-path="url(#clipPath2)" font-family="sans-serif" stroke="none">State -2</text>
      <text x="455.0781" xml:space="preserve" y="781.657" clip-path="url(#clipPath2)" font-family="sans-serif" stroke="none">Hard Brake</text>
    </g>
    <g fill="url(#linearGradient9)" text-rendering="geometricPrecision" shape-rendering="geometricPrecision" transform="matrix(1,0,0,1,-125,-35)" stroke="url(#linearGradient9)">
      <ellipse rx="40" ry="20" clip-path="url(#clipPath2)" cx="180" cy="630" stroke="none"/>
    </g>
    <g text-rendering="geometricPrecision" stroke-miterlimit="1.45" shape-rendering="geometricPrecision" transform="matrix(1,0,0,1,-125,-35)" stroke-linecap="butt">
      <ellipse rx="40" fill="none" ry="20" clip-path="url(#clipPath2)" cx="180" cy="630"/>
      <text x="166.5117" xml:space="preserve" y="634.5352" clip-path="url(#clipPath2)" font-family="sans-serif" stroke="none">Start</text>
    </g>
    <g fill="url(#linearGradient10)" text-rendering="geometricPrecision" shape-rendering="geometricPrecision" transform="matrix(1,0,0,1,-125,-35)" stroke="url(#linearGradient10)">
      <path d="M284 610 L324 630 L284 650 L244 630 Z" stroke="none" clip-path="url(#clipPath2)"/>
    </g>
    <g text-rendering="geometricPrecision" stroke-miterlimit="1.45" shape-rendering="geometricPrecision" transform="matrix(1,0,0,1,-125,-35)" stroke-linecap="butt">
      <path fill="none" d="M284 610 L324 630 L284 650 L244 630 Z" clip-path="url(#clipPath2)"/>
      <text x="263.252" xml:space="preserve" y="634.5352" clip-path="url(#clipPath2)" font-family="sans-serif" stroke="none">Setup ?</text>
    </g>
    <g fill="url(#linearGradient11)" text-rendering="geometricPrecision" shape-rendering="geometricPrecision" transform="matrix(1,0,0,1,-125,-35)" stroke="url(#linearGradient11)">
      <path d="M244 668 L324 668 L324 708 L244 708 Z" stroke="none" clip-path="url(#clipPath2)"/>
    </g>
    <g text-rendering="geometricPrecision" stroke-miterlimit="1.45" shape-rendering="geometricPrecision" transform="matrix(1,0,0,1,-125,-35)" stroke-linecap="butt">
      <path fill="none" d="M244 668 L324 668 L324 708 L244 708 Z" clip-path="url(#clipPath2)"/>
      <text x="247.5254" xml:space="preserve" y="692.5352" clip-path="url(#clipPath2)" font-family="sans-serif" stroke="none">set MAX pull</text>
    </g>
    <g fill="url(#linearGradient12)" text-rendering="geometricPrecision" shape-rendering="geometricPrecision" transform="matrix(1,0,0,1,-125,-35)" stroke="url(#linearGradient12)">
      <path d="M244 730 L324 730 L324 770 L244 770 Z" stroke="none" clip-path="url(#clipPath2)"/>
    </g>
    <g text-rendering="geometricPrecision" stroke-miterlimit="1.45" shape-rendering="geometricPrecision" transform="matrix(1,0,0,1,-125,-35)" stroke-linecap="butt">
      <path fill="none" d="M244 730 L324 730 L324 770 L244 770 Z" clip-path="url(#clipPath2)"/>
      <text x="245.6357" xml:space="preserve" y="754.5352" clip-path="url(#clipPath2)" font-family="sans-serif" stroke="none">set sender ID</text>
    </g>
    <g fill="url(#linearGradient13)" text-rendering="geometricPrecision" shape-rendering="geometricPrecision" transform="matrix(1,0,0,1,-125,-35)" stroke="url(#linearGradient13)">
      <path d="M488 110 L528 130 L488 150 L448 130 Z" stroke="none" clip-path="url(#clipPath2)"/>
    </g>
    <g text-rendering="geometricPrecision" stroke-miterlimit="1.45" shape-rendering="geometricPrecision" transform="matrix(1,0,0,1,-125,-35)" stroke-linecap="butt">
      <path fill="none" d="M488 110 L528 130 L488 150 L448 130 Z" clip-path="url(#clipPath2)"/>
      <text x="466.9502" xml:space="preserve" y="134.5352" clip-path="url(#clipPath2)" font-family="sans-serif" stroke="none">BTN UP</text>
    </g>
    <g fill="url(#linearGradient14)" text-rendering="geometricPrecision" shape-rendering="geometricPrecision" transform="matrix(1,0,0,1,-125,-35)" stroke="url(#linearGradient14)">
      <path d="M488 560 L528 580 L488 600 L448 580 Z" stroke="none" clip-path="url(#clipPath2)"/>
    </g>
    <g text-rendering="geometricPrecision" stroke-miterlimit="1.45" shape-rendering="geometricPrecision" transform="matrix(1,0,0,1,-125,-35)" stroke-linecap="butt">
      <path fill="none" d="M488 560 L528 580 L488 600 L448 580 Z" clip-path="url(#clipPath2)"/>
      <text x="466.9502" xml:space="preserve" y="584.5352" clip-path="url(#clipPath2)" font-family="sans-serif" stroke="none">BTN UP</text>
    </g>
    <g fill="url(#linearGradient15)" text-rendering="geometricPrecision" shape-rendering="geometricPrecision" transform="matrix(1,0,0,1,-125,-35)" stroke="url(#linearGradient15)">
      <path d="M488 445 L528 465 L488 485 L448 465 Z" stroke="none" clip-path="url(#clipPath2)"/>
    </g>
    <g text-rendering="geometricPrecision" stroke-miterlimit="1.45" shape-rendering="geometricPrecision" transform="matrix(1,0,0,1,-125,-35)" stroke-linecap="butt">
      <path fill="none" d="M488 445 L528 465 L488 485 L448 465 Z" clip-path="url(#clipPath2)"/>
      <text x="466.9502" xml:space="preserve" y="469.5352" clip-path="url(#clipPath2)" font-family="sans-serif" stroke="none">BTN UP</text>
    </g>
    <g fill="url(#linearGradient16)" text-rendering="geometricPrecision" shape-rendering="geometricPrecision" transform="matrix(1,0,0,1,-125,-35)" stroke="url(#linearGradient16)">
      <path d="M488 331.122 L528 351.122 L488 371.122 L448 351.122 Z" stroke="none" clip-path="url(#clipPath2)"/>
    </g>
    <g text-rendering="geometricPrecision" stroke-miterlimit="1.45" shape-rendering="geometricPrecision" transform="matrix(1,0,0,1,-125,-35)" stroke-linecap="butt">
      <path fill="none" d="M488 331.122 L528 351.122 L488 371.122 L448 351.122 Z" clip-path="url(#clipPath2)"/>
      <text x="466.9502" xml:space="preserve" y="355.6572" clip-path="url(#clipPath2)" font-family="sans-serif" stroke="none">BTN UP</text>
    </g>
    <g fill="url(#linearGradient17)" text-rendering="geometricPrecision" shape-rendering="geometricPrecision" transform="matrix(1,0,0,1,-125,-35)" stroke="url(#linearGradient17)">
      <path d="M488 220 L528 240 L488 260 L448 240 Z" stroke="none" clip-path="url(#clipPath2)"/>
    </g>
    <g text-rendering="geometricPrecision" stroke-miterlimit="1.45" shape-rendering="geometricPrecision" transform="matrix(1,0,0,1,-125,-35)" stroke-linecap="butt">
      <path fill="none" d="M488 220 L528 240 L488 260 L448 240 Z" clip-path="url(#clipPath2)"/>
      <text x="466.9502" xml:space="preserve" y="244.5352" clip-path="url(#clipPath2)" font-family="sans-serif" stroke="none">BTN UP</text>
    </g>
    <g fill="url(#linearGradient18)" text-rendering="geometricPrecision" shape-rendering="geometricPrecision" transform="matrix(1,0,0,1,-125,-35)" stroke="url(#linearGradient18)">
      <path d="M360 534.5 L420.5 570 L360 605.5 L299.5 570 Z" stroke="none" clip-path="url(#clipPath2)"/>
    </g>
    <g text-rendering="geometricPrecision" stroke-miterlimit="1.45" shape-rendering="geometricPrecision" transform="matrix(1,0,0,1,-125,-35)" stroke-linecap="butt">
      <path fill="none" d="M360 534.5 L420.5 570 L360 605.5 L299.5 570 Z" clip-path="url(#clipPath2)"/>
      <text x="329.8975" xml:space="preserve" y="567.4688" clip-path="url(#clipPath2)" font-family="sans-serif" stroke="none">BTN Down</text>
      <text x="347.1152" xml:space="preserve" y="581.6016" clip-path="url(#clipPath2)" font-family="sans-serif" stroke="none">long</text>
    </g>
    <g fill="url(#linearGradient19)" text-rendering="geometricPrecision" shape-rendering="geometricPrecision" transform="matrix(1,0,0,1,-125,-35)" stroke="url(#linearGradient19)">
      <path d="M552.5 672.5 L605 700.0277 L552.5 727.5555 L500 700.0277 Z" stroke="none" clip-path="url(#clipPath2)"/>
    </g>
    <g text-rendering="geometricPrecision" stroke-miterlimit="1.45" shape-rendering="geometricPrecision" transform="matrix(1,0,0,1,-125,-35)" stroke-linecap="butt">
      <path fill="none" d="M552.5 672.5 L605 700.0277 L552.5 727.5555 L500 700.0277 Z" clip-path="url(#clipPath2)"/>
      <text x="520.2031" xml:space="preserve" y="704.5629" clip-path="url(#clipPath2)" font-family="sans-serif" stroke="none">BTN DOWN</text>
    </g>
    <g fill="url(#linearGradient20)" text-rendering="geometricPrecision" shape-rendering="geometricPrecision" transform="matrix(1,0,0,1,-125,-35)" stroke="url(#linearGradient20)">
      <path d="M432.5 672.5 L485 700.0277 L432.5 727.5555 L380 700.0277 Z" stroke="none" clip-path="url(#clipPath2)"/>
    </g>
    <g text-rendering="geometricPrecision" stroke-miterlimit="1.45" shape-rendering="geometricPrecision" transform="matrix(1,0,0,1,-125,-35)" stroke-linecap="butt">
      <path fill="none" d="M432.5 672.5 L485 700.0277 L432.5 727.5555 L380 700.0277 Z" clip-path="url(#clipPath2)"/>
      <text x="411.4502" xml:space="preserve" y="704.5629" clip-path="url(#clipPath2)" font-family="sans-serif" stroke="none">BTN UP</text>
    </g>
    <g fill="url(#linearGradient21)" text-rendering="geometricPrecision" shape-rendering="geometricPrecision" transform="matrix(1,0,0,1,-125,-35)" stroke="url(#linearGradient21)">
      <path d="M768.0742 668 L824.5298 703.5 L768.0742 739 L711.6185 703.5 Z" stroke="none" clip-path="url(#clipPath2)"/>
    </g>
    <g text-rendering="geometricPrecision" stroke-miterlimit="1.45" shape-rendering="geometricPrecision" transform="matrix(1,0,0,1,-125,-35)" stroke-linecap="butt">
      <path fill="none" d="M768.0742 668 L824.5298 703.5 L768.0742 739 L711.6185 703.5 Z" clip-path="url(#clipPath2)"/>
      <text x="737.9716" xml:space="preserve" y="700.9688" clip-path="url(#clipPath2)" font-family="sans-serif" stroke="none">BTN Down</text>
      <text x="734.1953" xml:space="preserve" y="715.1016" clip-path="url(#clipPath2)" font-family="sans-serif" stroke="none">Doubleclick</text>
    </g>
    <g fill="url(#linearGradient22)" text-rendering="geometricPrecision" shape-rendering="geometricPrecision" transform="matrix(1,0,0,1,-125,-35)" stroke="url(#linearGradient22)">
      <path d="M769.5298 495 L809.5298 515 L769.5298 535 L729.5298 515 Z" stroke="none" clip-path="url(#clipPath2)"/>
    </g>
    <g text-rendering="geometricPrecision" stroke-miterlimit="1.45" shape-rendering="geometricPrecision" transform="matrix(1,0,0,1,-125,-35)" stroke-linecap="butt">
      <path fill="none" d="M769.5298 495 L809.5298 515 L769.5298 535 L729.5298 515 Z" clip-path="url(#clipPath2)"/>
      <text x="748.48" xml:space="preserve" y="519.5352" clip-path="url(#clipPath2)" font-family="sans-serif" stroke="none">BTN UP</text>
    </g>
    <g fill="url(#linearGradient23)" text-rendering="geometricPrecision" shape-rendering="geometricPrecision" transform="matrix(1,0,0,1,-125,-35)" stroke="url(#linearGradient23)">
      <path d="M666.0298 594.9445 L718.5298 622.4723 L666.0298 650 L613.5298 622.4723 Z" stroke="none" clip-path="url(#clipPath2)"/>
    </g>
    <g text-rendering="geometricPrecision" stroke-miterlimit="1.45" shape-rendering="geometricPrecision" transform="matrix(1,0,0,1,-125,-35)" stroke-linecap="butt">
      <path fill="none" d="M666.0298 594.9445 L718.5298 622.4723 L666.0298 650 L613.5298 622.4723 Z" clip-path="url(#clipPath2)"/>
      <text x="633.7329" xml:space="preserve" y="627.0074" clip-path="url(#clipPath2)" font-family="sans-serif" stroke="none">BTN DOWN</text>
    </g>
    <g fill="url(#linearGradient24)" text-rendering="geometricPrecision" shape-rendering="geometricPrecision" transform="matrix(1,0,0,1,-125,-35)" stroke="url(#linearGradient24)">
      <path d="M637.5 91.4467 L742.5 91.4467 L742.5 168.5533 L637.5 168.5533 Z" stroke="none" clip-path="url(#clipPath2)"/>
    </g>
    <g text-rendering="geometricPrecision" stroke-miterlimit="1.45" shape-rendering="geometricPrecision" transform="matrix(1,0,0,1,-125,-35)" stroke-linecap="butt">
      <path fill="none" d="M637.5 91.4467 L742.5 91.4467 L742.5 168.5533 L637.5 168.5533 Z" clip-path="url(#clipPath2)"/>
      <text x="659.959" xml:space="preserve" y="113.3359" clip-path="url(#clipPath2)" font-family="sans-serif" stroke="none">Longpress</text>
      <text x="656.2383" xml:space="preserve" y="127.4688" clip-path="url(#clipPath2)" font-family="sans-serif" stroke="none">BTN UP and</text>
      <text x="657.7031" xml:space="preserve" y="141.6016" clip-path="url(#clipPath2)" font-family="sans-serif" stroke="none">BTN DOWN</text>
      <text x="656.9795" xml:space="preserve" y="155.7344" clip-path="url(#clipPath2)" font-family="sans-serif" stroke="none">&gt; 1 second</text>
    </g>
    <g fill="url(#linearGradient25)" text-rendering="geometricPrecision" shape-rendering="geometricPrecision" transform="matrix(1,0,0,1,-125,-35)" stroke="url(#linearGradient25)">
      <path d="M650 220 L730 220 L730 260 L650 260 Z" stroke="none" clip-path="url(#clipPath2)"/>
    </g>
    <g text-rendering="geometricPrecision" stroke-miterlimit="1.45" shape-rendering="geometricPrecision" transform="matrix(1,0,0,1,-125,-35)" stroke-linecap="butt">
      <path fill="none" d="M650 220 L730 220 L730 260 L650 260 Z" clip-path="url(#clipPath2)"/>
      <text x="666.6885" xml:space="preserve" y="237.4688" clip-path="url(#clipPath2)" font-family="sans-serif" stroke="none">CUT the</text>
      <text x="677.8447" xml:space="preserve" y="251.6016" clip-path="url(#clipPath2)" font-family="sans-serif" stroke="none">wire</text>
    </g>
    <g fill="url(#linearGradient26)" text-rendering="geometricPrecision" shape-rendering="geometricPrecision" transform="matrix(1,0,0,1,-125,-35)" stroke="url(#linearGradient26)">
      <path d="M613 320 L767 320 L767 360 L613 360 Z" stroke="none" clip-path="url(#clipPath2)"/>
    </g>
    <g text-rendering="geometricPrecision" stroke-miterlimit="1.45" shape-rendering="geometricPrecision" transform="matrix(1,0,0,1,-125,-35)" stroke-linecap="butt">
      <path fill="none" d="M613 320 L767 320 L767 360 L613 360 Z" clip-path="url(#clipPath2)"/>
      <text x="666.46" xml:space="preserve" y="337.4688" clip-path="url(#clipPath2)" font-family="sans-serif" stroke="none">State -1</text>
      <text x="660.665" xml:space="preserve" y="351.6016" clip-path="url(#clipPath2)" font-family="sans-serif" stroke="none">Soft Brake</text>
    </g>
    <g stroke-linecap="butt" transform="matrix(1,0,0,1,-125,-35)" fill="red" text-rendering="geometricPrecision" shape-rendering="geometricPrecision" stroke="red" stroke-width="4" stroke-miterlimit="1.45">
      <path fill="none" d="M219.9902 630 L244.0251 630" clip-path="url(#clipPath2)"/>
    </g>
    <g stroke-linecap="butt" transform="matrix(1,0,0,1,-125,-35)" fill="red" text-rendering="geometricPrecision" shape-rendering="geometricPrecision" stroke="red" stroke-width="4" stroke-miterlimit="1.45">
      <path fill="none" d="M323.9954 630 L409.9946 630" clip-path="url(#clipPath2)"/>
    </g>
    <g text-rendering="geometricPrecision" stroke-miterlimit="1.45" shape-rendering="geometricPrecision" font-family="sans-serif" transform="matrix(1,0,0,1,-125,-35)" stroke-linecap="butt">
      <text x="331" xml:space="preserve" y="621.0295" clip-path="url(#clipPath2)" stroke="none">nein</text>
    </g>
    <g stroke-linecap="butt" transform="matrix(1,0,0,1,-125,-35)" fill="red" text-rendering="geometricPrecision" shape-rendering="geometricPrecision" stroke="red" stroke-width="4" stroke-miterlimit="1.45">
      <path fill="none" d="M284 650.0225 L284 668.0099" clip-path="url(#clipPath2)"/>
    </g>
    <g text-rendering="geometricPrecision" stroke-miterlimit="1.45" shape-rendering="geometricPrecision" font-family="sans-serif" transform="matrix(1,0,0,1,-125,-35)" stroke-linecap="butt">
      <text x="292.367" xml:space="preserve" y="663.5352" clip-path="url(#clipPath2)" stroke="none">ja</text>
    </g>
    <g stroke-linecap="butt" transform="matrix(1,0,0,1,-125,-35)" fill="red" text-rendering="geometricPrecision" shape-rendering="geometricPrecision" stroke="red" stroke-width="4" stroke-miterlimit="1.45">
      <path fill="none" d="M284 708.0107 L284 730.0305" clip-path="url(#clipPath2)"/>
      <path fill="none" d="M284 770.0098 L284 780 L360 780 L360 630 L410.0125 630" clip-path="url(#clipPath2)"/>
      <path fill="none" d="M488 160.0293 L488 150.0293" clip-path="url(#clipPath2)"/>
      <path fill="none" d="M488 110.0272 L488 101.108" clip-path="url(#clipPath2)"/>
      <path d="M488 90.108 L481.125 106.608 L488 102.483 L494.875 106.608 Z" clip-path="url(#clipPath2)" stroke="none"/>
      <path fill="none" d="M487.3994 610.0293 L487.6041 599.7947" clip-path="url(#clipPath2)"/>
      <path fill="none" d="M488 559.9731 L488 545.9832" clip-path="url(#clipPath2)"/>
      <path d="M488 534.9832 L481.125 551.4832 L488 547.3582 L494.875 551.4832 Z" clip-path="url(#clipPath2)" stroke="none"/>
      <path fill="none" d="M488 495.0293 L488 485.0293" clip-path="url(#clipPath2)"/>
      <path fill="none" d="M488 445.0069 L488 432.1359" clip-path="url(#clipPath2)"/>
      <path d="M488 421.1359 L481.125 437.6359 L488 433.5109 L494.875 437.6359 Z" clip-path="url(#clipPath2)" stroke="none"/>
      <path fill="none" d="M488 381.1513 L488 371.1513" clip-path="url(#clipPath2)"/>
      <path fill="none" d="M488 331.0962 L488 321.0264" clip-path="url(#clipPath2)"/>
      <path d="M488 310.0264 L481.125 326.5264 L488 322.4014 L494.875 326.5264 Z" clip-path="url(#clipPath2)" stroke="none"/>
      <path fill="none" d="M488 270.0293 L488 260.0293" clip-path="url(#clipPath2)"/>
      <path fill="none" d="M488 219.9902 L488 211.0342" clip-path="url(#clipPath2)"/>
      <path d="M488 200.0342 L481.125 216.5342 L488 212.4092 L494.875 216.5342 Z" clip-path="url(#clipPath2)" stroke="none"/>
      <path fill="none" d="M447.9688 70.1109 L360 70.1109 L360 534.5159" clip-path="url(#clipPath2)"/>
      <path fill="none" d="M447.9688 180 L360 180 L360 534.5411" clip-path="url(#clipPath2)"/>
      <path fill="none" d="M447.9688 290 L360 290 L360 534.4873" clip-path="url(#clipPath2)"/>
      <path fill="none" d="M447.9688 401.122 L360 401.122 L360 534.501" clip-path="url(#clipPath2)"/>
      <path fill="none" d="M447.9688 515 L360 515 L360 534.5239" clip-path="url(#clipPath2)"/>
      <path fill="none" d="M360 605.4785 L360 630 L399.0125 630" clip-path="url(#clipPath2)"/>
      <path d="M410.0125 630 L393.5125 623.125 L397.6375 630 L393.5125 636.875 Z" clip-path="url(#clipPath2)" stroke="none"/>
      <path fill="none" d="M552.5 727.5334 L552.5 739.0945" clip-path="url(#clipPath2)"/>
      <path d="M552.5 750.0945 L559.375 733.5945 L552.5 737.7195 L545.625 733.5945 Z" clip-path="url(#clipPath2)" stroke="none"/>
      <path fill="none" d="M552.5 672.4825 L552.5 661.003" clip-path="url(#clipPath2)"/>
      <path d="M552.5 650.003 L545.625 666.503 L552.5 662.378 L559.375 666.503 Z" clip-path="url(#clipPath2)" stroke="none"/>
      <path fill="none" d="M432.5 750.082 L432.5 727.5479" clip-path="url(#clipPath2)"/>
      <path fill="none" d="M432.5 672.4684 L432.5 660.9688" clip-path="url(#clipPath2)"/>
      <path d="M432.5 649.9688 L425.625 666.4688 L432.5 662.3438 L439.375 666.4688 Z" clip-path="url(#clipPath2)" stroke="none"/>
      <path fill="none" d="M564.0137 641.5556 L615.873 641.5556 L615.873 703.9747 L711.9277 703.6751" clip-path="url(#clipPath2)"/>
      <path fill="none" d="M564.0032 770.0555 L616 770.0555 L616 703.5 L700.6033 703.5" clip-path="url(#clipPath2)"/>
      <path d="M711.6033 703.5 L695.1033 696.625 L699.2283 703.5 L695.1033 710.375 Z" clip-path="url(#clipPath2)" stroke="none"/>
      <path fill="none" d="M768.7046 668.4064 L768.9736 653.4321" clip-path="url(#clipPath2)"/>
      <path d="M769.1711 642.4339 L762.0009 658.8077 L768.9489 654.8069 L775.7487 659.0547 Z" clip-path="url(#clipPath2)" stroke="none"/>
      <path fill="none" d="M769.5298 602.4524 L769.5298 535.0269" clip-path="url(#clipPath2)"/>
      <path fill="none" d="M729.5616 515 L539.0145 515" clip-path="url(#clipPath2)"/>
      <path d="M528.0145 515 L544.5145 521.875 L540.3895 515 L544.5145 508.125 Z" clip-path="url(#clipPath2)" stroke="none"/>
      <path fill="none" d="M729.5297 622.4723 L718.5226 622.4723" clip-path="url(#clipPath2)"/>
      <path fill="none" d="M614.0176 622.2352 L575.0078 622.0574" clip-path="url(#clipPath2)"/>
      <path d="M564.0079 622.0073 L580.4764 628.9574 L576.3828 622.0637 L580.5391 615.2076 Z" clip-path="url(#clipPath2)" stroke="none"/>
      <path fill="none" d="M690 168.5376 L690 209.0059" clip-path="url(#clipPath2)"/>
      <path d="M690 220.0059 L696.875 203.5059 L690 207.6309 L683.125 203.5059 Z" clip-path="url(#clipPath2)" stroke="none"/>
      <path fill="none" d="M690 259.9707 L690 309.0317" clip-path="url(#clipPath2)"/>
      <path d="M690 320.0317 L696.875 303.5317 L690 307.6567 L683.125 303.5317 Z" clip-path="url(#clipPath2)" stroke="none"/>
    </g>
  </g>
</svg>
